{
  "asset": {
    "version": "2.0",
    "generator": "THREE.GLTFExporter"
  },
  "scenes": [
    {
      "name": "Developer_Intro_Orb",
      "nodes": [
        32
      ]
    }
  ],
  "scene": 0,
  "nodes": [
    {
      "name": "outer_amber_portal_ring",
      "mesh": 0
    },
    {
      "matrix": [
        0.9130889403123083,
        0.09692573064537816,
        -0.396073212699629,
        0,
        0,
        0.9713379748520296,
        0.2377026264271346,
        0,
        0.40776045305957015,
        -0.21704363927380485,
        0.8869179621427432,
        0,
        0,
        0,
        0.05,
        1
      ],
      "name": "middle_cyan_orbit_ring",
      "mesh": 1
    },
    {
      "matrix": [
        0.8120012391622928,
        0.5824588266881172,
        -0.0373591061456586,
        0,
        -0.5555199361299901,
        0.7516389870057666,
        -0.3555790120002539,
        0,
        -0.17902957342582415,
        0.30948432662421976,
        0.9338992790515049,
        0,
        0,
        0,
        -0.04,
        1
      ],
      "name": "inner_rust_orbit_ring",
      "mesh": 2
    },
    {
      "matrix": [
        1,
        0,
        0,
        0,
        0,
        1,
        0,
        0,
        0,
        0,
        1,
        0,
        0,
        0,
        -0.08,
        1
      ],
      "name": "thin_graphite_backplate",
      "mesh": 3
    },
    {
      "name": "central_dark_core",
      "mesh": 4
    },
    {
      "matrix": [
        1,
        0,
        0,
        0,
        0,
        1,
        0,
        0,
        0,
        0,
        1,
        0,
        0,
        0,
        0.05,
        1
      ],
      "name": "central_amber_kernel",
      "mesh": 5
    },
    {
      "matrix": [
        1,
        0,
        0,
        0,
        0,
        1,
        0,
        0,
        0,
        0,
        1,
        0,
        -0.82,
        0,
        0.16,
        1
      ],
      "name": "left_code_bracket_vertical",
      "mesh": 6
    },
    {
      "matrix": [
        1,
        0,
        0,
        0,
        0,
        1,
        0,
        0,
        0,
        0,
        1,
        0,
        -0.66,
        0.315,
        0.16,
        1
      ],
      "name": "left_code_bracket_top",
      "mesh": 7
    },
    {
      "matrix": [
        1,
        0,
        0,
        0,
        0,
        1,
        0,
        0,
        0,
        0,
        1,
        0,
        -0.66,
        -0.315,
        0.16,
        1
      ],
      "name": "left_code_bracket_bottom",
      "mesh": 7
    },
    {
      "matrix": [
        1,
        0,
        0,
        0,
        0,
        1,
        0,
        0,
        0,
        0,
        1,
        0,
        0.82,
        0,
        0.16,
        1
      ],
      "name": "right_code_bracket_vertical",
      "mesh": 8
    },
    {
      "matrix": [
        1,
        0,
        0,
        0,
        0,
        1,
        0,
        0,
        0,
        0,
        1,
        0,
        0.66,
        0.315,
        0.16,
        1
      ],
      "name": "right_code_bracket_top",
      "mesh": 9
    },
    {
      "matrix": [
        1,
        0,
        0,
        0,
        0,
        1,
        0,
        0,
        0,
        0,
        1,
        0,
        0.66,
        -0.315,
        0.16,
        1
      ],
      "name": "right_code_bracket_bottom",
      "mesh": 9
    },
    {
      "matrix": [
        0.9130889403123083,
        -0.40776045305957015,
        0,
        0,
        0.40776045305957015,
        0.9130889403123083,
        0,
        0,
        0,
        0,
        1,
        0,
        0.08,
        0,
        0.2,
        1
      ],
      "name": "forward_slash_primary",
      "mesh": 10
    },
    {
      "matrix": [
        0.9130889403123083,
        -0.40776045305957015,
        0,
        0,
        0.40776045305957015,
        0.9130889403123083,
        0,
        0,
        0,
        0,
        1,
        0,
        -0.09,
        -0.02,
        0.12,
        1
      ],
      "name": "forward_slash_shadow",
      "mesh": 11
    },
    {
      "matrix": [
        1,
        0,
        0,
        0,
        0,
        1,
        0,
        0,
        0,
        0,
        1,
        0,
        1.48,
        0,
        0.16,
        1
      ],
      "name": "orbit_node_01",
      "mesh": 12
    },
    {
      "matrix": [
        1,
        0,
        0,
        0,
        0,
        1,
        0,
        0,
        0,
        0,
        1,
        0,
        0.9353074360871939,
        0.5399999999999999,
        -0.03,
        1
      ],
      "name": "orbit_node_02",
      "mesh": 13
    },
    {
      "matrix": [
        1,
        0,
        0,
        0,
        0,
        1,
        0,
        0,
        0,
        0,
        1,
        0,
        0.7400000000000001,
        1.2817175976009691,
        -0.03,
        1
      ],
      "name": "orbit_node_03",
      "mesh": 13
    },
    {
      "matrix": [
        1,
        0,
        0,
        0,
        0,
        1,
        0,
        0,
        0,
        0,
        1,
        0,
        6.613092715395707e-17,
        1.08,
        0.16,
        1
      ],
      "name": "orbit_node_04",
      "mesh": 12
    },
    {
      "matrix": [
        1,
        0,
        0,
        0,
        0,
        1,
        0,
        0,
        0,
        0,
        1,
        0,
        -0.7399999999999997,
        1.2817175976009694,
        -0.03,
        1
      ],
      "name": "orbit_node_05",
      "mesh": 13
    },
    {
      "matrix": [
        1,
        0,
        0,
        0,
        0,
        1,
        0,
        0,
        0,
        0,
        1,
        0,
        -0.9353074360871939,
        0.5399999999999999,
        -0.03,
        1
      ],
      "name": "orbit_node_06",
      "mesh": 13
    },
    {
      "matrix": [
        1,
        0,
        0,
        0,
        0,
        1,
        0,
        0,
        0,
        0,
        1,
        0,
        -1.48,
        1.8124772627380827e-16,
        0.16,
        1
      ],
      "name": "orbit_node_07",
      "mesh": 12
    },
    {
      "matrix": [
        1,
        0,
        0,
        0,
        0,
        1,
        0,
        0,
        0,
        0,
        1,
        0,
        -0.9353074360871938,
        -0.5400000000000001,
        -0.03,
        1
      ],
      "name": "orbit_node_08",
      "mesh": 13
    },
    {
      "matrix": [
        1,
        0,
        0,
        0,
        0,
        1,
        0,
        0,
        0,
        0,
        1,
        0,
        -0.7400000000000007,
        -1.281717597600969,
        -0.03,
        1
      ],
      "name": "orbit_node_09",
      "mesh": 13
    },
    {
      "matrix": [
        1,
        0,
        0,
        0,
        0,
        1,
        0,
        0,
        0,
        0,
        1,
        0,
        -1.9839278146187122e-16,
        -1.08,
        0.16,
        1
      ],
      "name": "orbit_node_10",
      "mesh": 12
    },
    {
      "matrix": [
        1,
        0,
        0,
        0,
        0,
        1,
        0,
        0,
        0,
        0,
        1,
        0,
        0.7400000000000001,
        -1.2817175976009691,
        -0.03,
        1
      ],
      "name": "orbit_node_11",
      "mesh": 13
    },
    {
      "matrix": [
        1,
        0,
        0,
        0,
        0,
        1,
        0,
        0,
        0,
        0,
        1,
        0,
        0.9353074360871935,
        -0.5400000000000005,
        -0.03,
        1
      ],
      "name": "orbit_node_12",
      "mesh": 13
    },
    {
      "matrix": [
        2.220446049250313e-16,
        2.220446049250313e-16,
        1,
        0,
        -1,
        0,
        2.220446049250313e-16,
        0,
        0,
        -1,
        2.220446049250313e-16,
        0,
        0.38,
        0,
        -0.08,
        1
      ],
      "name": "radial_circuit_trace_01",
      "mesh": 14
    },
    {
      "matrix": [
        -0.8660254037844384,
        5.551115123125783e-17,
        0.5000000000000003,
        0,
        -0.5000000000000002,
        0,
        -0.8660254037844383,
        0,
        0,
        -0.9999999999999999,
        2.220446049250313e-16,
        0,
        0.19000000000000006,
        0.32908965343808666,
        -0.08,
        1
      ],
      "name": "radial_circuit_trace_02",
      "mesh": 15
    },
    {
      "matrix": [
        -0.8660254037844388,
        -8.326672684688674e-17,
        -0.4999999999999998,
        0,
        0.4999999999999998,
        0,
        -0.8660254037844388,
        0,
        0,
        -1,
        1.1102230246251565e-16,
        0,
        -0.18999999999999992,
        0.3290896534380867,
        -0.08,
        1
      ],
      "name": "radial_circuit_trace_03",
      "mesh": 14
    },
    {
      "matrix": [
        -2.220446049250313e-16,
        -2.220446049250313e-16,
        -1,
        0,
        1,
        0,
        -2.220446049250313e-16,
        0,
        0,
        -1,
        2.220446049250313e-16,
        0,
        -0.38,
        4.6536578367599424e-17,
        -0.08,
        1
      ],
      "name": "radial_circuit_trace_04",
      "mesh": 15
    },
    {
      "matrix": [
        0.8660254037844384,
        -1.1102230246251565e-16,
        -0.5000000000000004,
        0,
        0.5000000000000004,
        2.220446049250313e-16,
        0.8660254037844383,
        0,
        0,
        -0.9999999999999999,
        2.220446049250313e-16,
        0,
        -0.19000000000000017,
        -0.3290896534380866,
        -0.08,
        1
      ],
      "name": "radial_circuit_trace_05",
      "mesh": 14
    },
    {
      "matrix": [
        0.8660254037844386,
        5.551115123125783e-17,
        0.5000000000000001,
        0,
        -0.5,
        0,
        0.8660254037844387,
        0,
        0,
        -1,
        0,
        0,
        0.19000000000000006,
        -0.32908965343808666,
        -0.08,
        1
      ],
      "name": "radial_circuit_trace_06",
      "mesh": 15
    },
    {
      "matrix": [
        1.415051301529378,
        -0.025287642638097584,
        -0.3154209079465426,
        0,
        0,
        1.445362474138798,
        -0.11587630625530039,
        0,
        0.31643295346726047,
        0.11308339171239976,
        1.4105255518702262,
        0,
        0,
        0,
        0,
        1
      ],
      "name": "Circular_Developer_Portfolio_GlTF",
      "children": [
        0,
        1,
        2,
        3,
        4,
        5,
        6,
        7,
        8,
        9,
        10,
        11,
        12,
        13,
        14,
        15,
        16,
        17,
        18,
        19,
        20,
        21,
        22,
        23,
        24,
        25,
        26,
        27,
        28,
        29,
        30,
        31
      ]
    }
  ],
  "bufferViews": [
    {
      "buffer": 0,
      "byteOffset": 0,
      "byteLength": 48300,
      "target": 34962,
      "byteStride": 12
    },
    {
      "buffer": 0,
      "byteOffset": 48300,
      "byteLength": 48300,
      "target": 34962,
      "byteStride": 12
    },
    {
      "buffer": 0,
      "byteOffset": 96600,
      "byteLength": 32200,
      "target": 34962,
      "byteStride": 8
    },
    {
      "buffer": 0,
      "byteOffset": 128800,
      "byteLength": 46080,
      "target": 34963
    },
    {
      "buffer": 0,
      "byteOffset": 174880,
      "byteLength": 29412,
      "target": 34962,
      "byteStride": 12
    },
    {
      "buffer": 0,
      "byteOffset": 204292,
      "byteLength": 29412,
      "target": 34962,
      "byteStride": 12
    },
    {
      "buffer": 0,
      "byteOffset": 233704,
      "byteLength": 19608,
      "target": 34962,
      "byteStride": 8
    },
    {
      "buffer": 0,
      "byteOffset": 253312,
      "byteLength": 27648,
      "target": 34963
    },
    {
      "buffer": 0,
      "byteOffset": 280960,
      "byteLength": 25764,
      "target": 34962,
      "byteStride": 12
    },
    {
      "buffer": 0,
      "byteOffset": 306724,
      "byteLength": 25764,
      "target": 34962,
      "byteStride": 12
    },
    {
      "buffer": 0,
      "byteOffset": 332488,
      "byteLength": 17176,
      "target": 34962,
      "byteStride": 8
    },
    {
      "buffer": 0,
      "byteOffset": 349664,
      "byteLength": 24192,
      "target": 34963
    },
    {
      "buffer": 0,
      "byteOffset": 373856,
      "byteLength": 32844,
      "target": 34962,
      "byteStride": 12
    },
    {
      "buffer": 0,
      "byteOffset": 406700,
      "byteLength": 32844,
      "target": 34962,
      "byteStride": 12
    },
    {
      "buffer": 0,
      "byteOffset": 439544,
      "byteLength": 21896,
      "target": 34962,
      "byteStride": 8
    },
    {
      "buffer": 0,
      "byteOffset": 461440,
      "byteLength": 30720,
      "target": 34963
    },
    {
      "buffer": 0,
      "byteOffset": 492160,
      "byteLength": 11520,
      "target": 34962,
      "byteStride": 12
    },
    {
      "buffer": 0,
      "byteOffset": 503680,
      "byteLength": 11520,
      "target": 34962,
      "byteStride": 12
    },
    {
      "buffer": 0,
      "byteOffset": 515200,
      "byteLength": 7680,
      "target": 34962,
      "byteStride": 8
    },
    {
      "buffer": 0,
      "byteOffset": 522880,
      "byteLength": 6480,
      "target": 34962,
      "byteStride": 12
    },
    {
      "buffer": 0,
      "byteOffset": 529360,
      "byteLength": 6480,
      "target": 34962,
      "byteStride": 12
    },
    {
      "buffer": 0,
      "byteOffset": 535840,
      "byteLength": 4320,
      "target": 34962,
      "byteStride": 8
    },
    {
      "buffer": 0,
      "byteOffset": 540160,
      "byteLength": 288,
      "target": 34962,
      "byteStride": 12
    },
    {
      "buffer": 0,
      "byteOffset": 540448,
      "byteLength": 288,
      "target": 34962,
      "byteStride": 12
    },
    {
      "buffer": 0,
      "byteOffset": 540736,
      "byteLength": 192,
      "target": 34962,
      "byteStride": 8
    },
    {
      "buffer": 0,
      "byteOffset": 540928,
      "byteLength": 72,
      "target": 34963
    },
    {
      "buffer": 0,
      "byteOffset": 541000,
      "byteLength": 288,
      "target": 34962,
      "byteStride": 12
    },
    {
      "buffer": 0,
      "byteOffset": 541288,
      "byteLength": 288,
      "target": 34962,
      "byteStride": 12
    },
    {
      "buffer": 0,
      "byteOffset": 541576,
      "byteLength": 192,
      "target": 34962,
      "byteStride": 8
    },
    {
      "buffer": 0,
      "byteOffset": 541768,
      "byteLength": 72,
      "target": 34963
    },
    {
      "buffer": 0,
      "byteOffset": 541840,
      "byteLength": 288,
      "target": 34962,
      "byteStride": 12
    },
    {
      "buffer": 0,
      "byteOffset": 542128,
      "byteLength": 288,
      "target": 34962,
      "byteStride": 12
    },
    {
      "buffer": 0,
      "byteOffset": 542416,
      "byteLength": 192,
      "target": 34962,
      "byteStride": 8
    },
    {
      "buffer": 0,
      "byteOffset": 542608,
      "byteLength": 72,
      "target": 34963
    },
    {
      "buffer": 0,
      "byteOffset": 542680,
      "byteLength": 288,
      "target": 34962,
      "byteStride": 12
    },
    {
      "buffer": 0,
      "byteOffset": 542968,
      "byteLength": 288,
      "target": 34962,
      "byteStride": 12
    },
    {
      "buffer": 0,
      "byteOffset": 543256,
      "byteLength": 192,
      "target": 34962,
      "byteStride": 8
    },
    {
      "buffer": 0,
      "byteOffset": 543448,
      "byteLength": 72,
      "target": 34963
    },
    {
      "buffer": 0,
      "byteOffset": 543520,
      "byteLength": 5100,
      "target": 34962,
      "byteStride": 12
    },
    {
      "buffer": 0,
      "byteOffset": 548620,
      "byteLength": 5100,
      "target": 34962,
      "byteStride": 12
    },
    {
      "buffer": 0,
      "byteOffset": 553720,
      "byteLength": 3400,
      "target": 34962,
      "byteStride": 8
    },
    {
      "buffer": 0,
      "byteOffset": 557120,
      "byteLength": 4320,
      "target": 34963
    },
    {
      "buffer": 0,
      "byteOffset": 561440,
      "byteLength": 912,
      "target": 34962,
      "byteStride": 12
    },
    {
      "buffer": 0,
      "byteOffset": 562352,
      "byteLength": 912,
      "target": 34962,
      "byteStride": 12
    },
    {
      "buffer": 0,
      "byteOffset": 563264,
      "byteLength": 608,
      "target": 34962,
      "byteStride": 8
    },
    {
      "buffer": 0,
      "byteOffset": 563872,
      "byteLength": 288,
      "target": 34963
    }
  ],
  "buffers": [
    {
      "byteLength": 564160,
      "uri": "data:application/octet-stream;base64,"
    }
  ],
  "accessors": [
    {
      "bufferView": 0,
      "componentType": 5126,
      "count": 4025,
      "max": [
        1.684999942779541,
        1.684999942779541,
        0.03500000014901161
      ],
      "min": [
        -1.684999942779541,
        -1.684999942779541,
        -0.03500000014901161
      ],
      "type": "VEC3"
    },
    {
      "bufferView": 1,
      "componentType": 5126,
      "count": 4025,
      "max": [
        1,
        1,
        1
      ],
      "min": [
        -1,
        -1,
        -1
      ],
      "type": "VEC3"
    },
    {
      "bufferView": 2,
      "componentType": 5126,
      "count": 4025,
      "max": [
        1,
        1
      ],
      "min": [
        0,
        0
      ],
      "type": "VEC2"
    },
    {
      "bufferView": 3,
      "componentType": 5123,
      "count": 23040,
      "max": [
        4024
      ],
      "min": [
        0
      ],
      "type": "SCALAR"
    },
    {
      "bufferView": 4,
      "componentType": 5126,
      "count": 2451,
      "max": [
        1.2580000162124634,
        1.2580000162124634,
        0.017726538702845573
      ],
      "min": [
        -1.2580000162124634,
        -1.2580000162124634,
        -0.017726538702845573
      ],
      "type": "VEC3"
    },
    {
      "bufferView": 5,
      "componentType": 5126,
      "count": 2451,
      "max": [
        1,
        1,
        0.9848077297210693
      ],
      "min": [
        -1,
        -1,
        -0.9848077297210693
      ],
      "type": "VEC3"
    },
    {
      "bufferView": 6,
      "componentType": 5126,
      "count": 2451,
      "max": [
        1,
        1
      ],
      "min": [
        0,
        0
      ],
      "type": "VEC2"
    },
    {
      "bufferView": 7,
      "componentType": 5123,
      "count": 13824,
      "max": [
        2450
      ],
      "min": [
        0
      ],
      "type": "SCALAR"
    },
    {
      "bufferView": 8,
      "componentType": 5126,
      "count": 2147,
      "max": [
        0.8600000143051147,
        0.8600000143051147,
        0.019696155562996864
      ],
      "min": [
        -0.8600000143051147,
        -0.8600000143051147,
        -0.019696155562996864
      ],
      "type": "VEC3"
    },
    {
      "bufferView": 9,
      "componentType": 5126,
      "count": 2147,
      "max": [
        1,
        1,
        0.9848077297210693
      ],
      "min": [
        -1,
        -1,
        -0.9848077297210693
      ],
      "type": "VEC3"
    },
    {
      "bufferView": 10,
      "componentType": 5126,
      "count": 2147,
      "max": [
        1,
        1
      ],
      "min": [
        0,
        0
      ],
      "type": "VEC2"
    },
    {
      "bufferView": 11,
      "componentType": 5123,
      "count": 12096,
      "max": [
        2146
      ],
      "min": [
        0
      ],
      "type": "SCALAR"
    },
    {
      "bufferView": 12,
      "componentType": 5126,
      "count": 2737,
      "max": [
        1.8380000591278076,
        1.8380000591278076,
        0.017999999225139618
      ],
      "min": [
        -1.8380000591278076,
        -1.8380000591278076,
        -0.017999999225139618
      ],
      "type": "VEC3"
    },
    {
      "bufferView": 13,
      "componentType": 5126,
      "count": 2737,
      "max": [
        1,
        1,
        1
      ],
      "min": [
        -1,
        -1,
        -1
      ],
      "type": "VEC3"
    },
    {
      "bufferView": 14,
      "componentType": 5126,
      "count": 2737,
      "max": [
        1,
        1
      ],
      "min": [
        0,
        0
      ],
      "type": "VEC2"
    },
    {
      "bufferView": 15,
      "componentType": 5123,
      "count": 15360,
      "max": [
        2736
      ],
      "min": [
        0
      ],
      "type": "SCALAR"
    },
    {
      "bufferView": 16,
      "componentType": 5126,
      "count": 960,
      "max": [
        0.4399999976158142,
        0.4399999976158142,
        0.4399999976158142
      ],
      "min": [
        -0.4399999976158142,
        -0.4399999976158142,
        -0.4399999976158142
      ],
      "type": "VEC3"
    },
    {
      "bufferView": 17,
      "componentType": 5126,
      "count": 960,
      "max": [
        1,
        1,
        1
      ],
      "min": [
        -1,
        -1,
        -1
      ],
      "type": "VEC3"
    },
    {
      "bufferView": 18,
      "componentType": 5126,
      "count": 960,
      "max": [
        1.0339397192001343,
        1
      ],
      "min": [
        0,
        0
      ],
      "type": "VEC2"
    },
    {
      "bufferView": 19,
      "componentType": 5126,
      "count": 540,
      "max": [
        0.19588641822338104,
        0.19588641822338104,
        0.19588641822338104
      ],
      "min": [
        -0.19588641822338104,
        -0.19588641822338104,
        -0.19588641822338104
      ],
      "type": "VEC3"
    },
    {
      "bufferView": 20,
      "componentType": 5126,
      "count": 540,
      "max": [
        0.9794321060180664,
        0.9794321060180664,
        0.9794321060180664
      ],
      "min": [
        -0.9794321060180664,
        -0.9794321060180664,
        -0.9794321060180664
      ],
      "type": "VEC3"
    },
    {
      "bufferView": 21,
      "componentType": 5126,
      "count": 540,
      "max": [
        1.0429178476333618,
        0.9353293180465698
      ],
      "min": [
        0,
        0.06467068195343018
      ],
      "type": "VEC2"
    },
    {
      "bufferView": 22,
      "componentType": 5126,
      "count": 24,
      "max": [
        0.04500000178813934,
        0.36000001430511475,
        0.03999999910593033
      ],
      "min": [
        -0.04500000178813934,
        -0.36000001430511475,
        -0.03999999910593033
      ],
      "type": "VEC3"
    },
    {
      "bufferView": 23,
      "componentType": 5126,
      "count": 24,
      "max": [
        1,
        1,
        1
      ],
      "min": [
        -1,
        -1,
        -1
      ],
      "type": "VEC3"
    },
    {
      "bufferView": 24,
      "componentType": 5126,
      "count": 24,
      "max": [
        1,
        1
      ],
      "min": [
        0,
        0
      ],
      "type": "VEC2"
    },
    {
      "bufferView": 25,
      "componentType": 5123,
      "count": 36,
      "max": [
        23
      ],
      "min": [
        0
      ],
      "type": "SCALAR"
    },
    {
      "bufferView": 26,
      "componentType": 5126,
      "count": 24,
      "max": [
        0.1899999976158142,
        0.04500000178813934,
        0.03999999910593033
      ],
      "min": [
        -0.1899999976158142,
        -0.04500000178813934,
        -0.03999999910593033
      ],
      "type": "VEC3"
    },
    {
      "bufferView": 27,
      "componentType": 5126,
      "count": 24,
      "max": [
        1,
        1,
        1
      ],
      "min": [
        -1,
        -1,
        -1
      ],
      "type": "VEC3"
    },
    {
      "bufferView": 28,
      "componentType": 5126,
      "count": 24,
      "max": [
        1,
        1
      ],
      "min": [
        0,
        0
      ],
      "type": "VEC2"
    },
    {
      "bufferView": 29,
      "componentType": 5123,
      "count": 36,
      "max": [
        23
      ],
      "min": [
        0
      ],
      "type": "SCALAR"
    },
    {
      "bufferView": 30,
      "componentType": 5126,
      "count": 24,
      "max": [
        0.03999999910593033,
        0.46000000834465027,
        0.03999999910593033
      ],
      "min": [
        -0.03999999910593033,
        -0.46000000834465027,
        -0.03999999910593033
      ],
      "type": "VEC3"
    },
    {
      "bufferView": 31,
      "componentType": 5126,
      "count": 24,
      "max": [
        1,
        1,
        1
      ],
      "min": [
        -1,
        -1,
        -1
      ],
      "type": "VEC3"
    },
    {
      "bufferView": 32,
      "componentType": 5126,
      "count": 24,
      "max": [
        1,
        1
      ],
      "min": [
        0,
        0
      ],
      "type": "VEC2"
    },
    {
      "bufferView": 33,
      "componentType": 5123,
      "count": 36,
      "max": [
        23
      ],
      "min": [
        0
      ],
      "type": "SCALAR"
    },
    {
      "bufferView": 34,
      "componentType": 5126,
      "count": 24,
      "max": [
        0.017500000074505806,
        0.3400000035762787,
        0.02500000037252903
      ],
      "min": [
        -0.017500000074505806,
        -0.3400000035762787,
        -0.02500000037252903
      ],
      "type": "VEC3"
    },
    {
      "bufferView": 35,
      "componentType": 5126,
      "count": 24,
      "max": [
        1,
        1,
        1
      ],
      "min": [
        -1,
        -1,
        -1
      ],
      "type": "VEC3"
    },
    {
      "bufferView": 36,
      "componentType": 5126,
      "count": 24,
      "max": [
        1,
        1
      ],
      "min": [
        0,
        0
      ],
      "type": "VEC2"
    },
    {
      "bufferView": 37,
      "componentType": 5123,
      "count": 36,
      "max": [
        23
      ],
      "min": [
        0
      ],
      "type": "SCALAR"
    },
    {
      "bufferView": 38,
      "componentType": 5126,
      "count": 425,
      "max": [
        0.054999999701976776,
        0.054999999701976776,
        0.054999999701976776
      ],
      "min": [
        -0.054999999701976776,
        -0.054999999701976776,
        -0.054999999701976776
      ],
      "type": "VEC3"
    },
    {
      "bufferView": 39,
      "componentType": 5126,
      "count": 425,
      "max": [
        1,
        1,
        1
      ],
      "min": [
        -1,
        -1,
        -1
      ],
      "type": "VEC3"
    },
    {
      "bufferView": 40,
      "componentType": 5126,
      "count": 425,
      "max": [
        1.0208333730697632,
        1
      ],
      "min": [
        -0.02083333395421505,
        0
      ],
      "type": "VEC2"
    },
    {
      "bufferView": 41,
      "componentType": 5123,
      "count": 2160,
      "max": [
        424
      ],
      "min": [
        0
      ],
      "type": "SCALAR"
    },
    {
      "bufferView": 42,
      "componentType": 5126,
      "count": 76,
      "max": [
        0.010999999940395355,
        0.6499999761581421,
        0.010999999940395355
      ],
      "min": [
        -0.010999999940395355,
        -0.6499999761581421,
        -0.010999999940395355
      ],
      "type": "VEC3"
    },
    {
      "bufferView": 43,
      "componentType": 5126,
      "count": 76,
      "max": [
        1,
        1,
        1
      ],
      "min": [
        -1,
        -1,
        -1
      ],
      "type": "VEC3"
    },
    {
      "bufferView": 44,
      "componentType": 5126,
      "count": 76,
      "max": [
        1,
        1
      ],
      "min": [
        0,
        0
      ],
      "type": "VEC2"
    },
    {
      "bufferView": 45,
      "componentType": 5123,
      "count": 144,
      "max": [
        75
      ],
      "min": [
        0
      ],
      "type": "SCALAR"
    }
  ],
  "materials": [
    {
      "pbrMetallicRoughness": {
        "baseColorFactor": [
          1,
          0.7686274509803922,
          0.4196078431372549,
          1
        ],
        "metallicFactor": 0.42,
        "roughnessFactor": 0.18
      },
      "emissiveFactor": [
        1,
        0.47843137254901963,
        0.16470588235294117
      ],
      "name": "amber_emissive_glow",
      "extensions": {
        "KHR_materials_emissive_strength": {
          "emissiveStrength": 2.2
        }
      }
    },
    {
      "pbrMetallicRoughness": {
        "baseColorFactor": [
          0.4392156862745098,
          0.9019607843137255,
          1,
          1
        ],
        "metallicFactor": 0.34,
        "roughnessFactor": 0.2
      },
      "emissiveFactor": [
        0.1411764705882353,
        0.7843137254901961,
        1
      ],
      "name": "cyan_emissive_glow",
      "extensions": {
        "KHR_materials_emissive_strength": {
          "emissiveStrength": 1.8
        }
      }
    },
    {
      "pbrMetallicRoughness": {
        "baseColorFactor": [
          0.7019607843137254,
          0.25098039215686274,
          0.12156862745098039,
          0.62
        ],
        "metallicFactor": 0.2,
        "roughnessFactor": 0.24
      },
      "emissiveFactor": [
        0.35294117647058826,
        0.08627450980392157,
        0.043137254901960784
      ],
      "alphaMode": "BLEND",
      "name": "rust_translucent_glass",
      "extensions": {
        "KHR_materials_emissive_strength": {
          "emissiveStrength": 0.65
        }
      }
    },
    {
      "pbrMetallicRoughness": {
        "baseColorFactor": [
          0.0784313725490196,
          0.06274509803921569,
          0.054901960784313725,
          1
        ],
        "metallicFactor": 0.82,
        "roughnessFactor": 0.34
      },
      "name": "graphite_metal"
    },
    {
      "pbrMetallicRoughness": {
        "baseColorFactor": [
          0.10196078431372549,
          0.0392156862745098,
          0.01568627450980392,
          0.78
        ],
        "metallicFactor": 0.7,
        "roughnessFactor": 0.12
      },
      "emissiveFactor": [
        0.14901960784313725,
        0.06274509803921569,
        0.027450980392156862
      ],
      "alphaMode": "BLEND",
      "name": "dark_translucent_core",
      "extensions": {
        "KHR_materials_emissive_strength": {
          "emissiveStrength": 0.5
        }
      }
    }
  ],
  "meshes": [
    {
      "primitives": [
        {
          "mode": 4,
          "attributes": {
            "POSITION": 0,
            "NORMAL": 1,
            "TEXCOORD_0": 2
          },
          "indices": 3,
          "material": 0
        }
      ]
    },
    {
      "primitives": [
        {
          "mode": 4,
          "attributes": {
            "POSITION": 4,
            "NORMAL": 5,
            "TEXCOORD_0": 6
          },
          "indices": 7,
          "material": 1
        }
      ]
    },
    {
      "primitives": [
        {
          "mode": 4,
          "attributes": {
            "POSITION": 8,
            "NORMAL": 9,
            "TEXCOORD_0": 10
          },
          "indices": 11,
          "material": 2
        }
      ]
    },
    {
      "primitives": [
        {
          "mode": 4,
          "attributes": {
            "POSITION": 12,
            "NORMAL": 13,
            "TEXCOORD_0": 14
          },
          "indices": 15,
          "material": 3
        }
      ]
    },
    {
      "primitives": [
        {
          "mode": 4,
          "attributes": {
            "POSITION": 16,
            "NORMAL": 17,
            "TEXCOORD_0": 18
          },
          "material": 4
        }
      ]
    },
    {
      "primitives": [
        {
          "mode": 4,
          "attributes": {
            "POSITION": 19,
            "NORMAL": 20,
            "TEXCOORD_0": 21
          },
          "material": 0
        }
      ]
    },
    {
      "primitives": [
        {
          "mode": 4,
          "attributes": {
            "POSITION": 22,
            "NORMAL": 23,
            "TEXCOORD_0": 24
          },
          "indices": 25,
          "material": 1
        }
      ]
    },
    {
      "primitives": [
        {
          "mode": 4,
          "attributes": {
            "POSITION": 26,
            "NORMAL": 27,
            "TEXCOORD_0": 28
          },
          "indices": 29,
          "material": 1
        }
      ]
    },
    {
      "primitives": [
        {
          "mode": 4,
          "attributes": {
            "POSITION": 22,
            "NORMAL": 23,
            "TEXCOORD_0": 24
          },
          "indices": 25,
          "material": 0
        }
      ]
    },
    {
      "primitives": [
        {
          "mode": 4,
          "attributes": {
            "POSITION": 26,
            "NORMAL": 27,
            "TEXCOORD_0": 28
          },
          "indices": 29,
          "material": 0
        }
      ]
    },
    {
      "primitives": [
        {
          "mode": 4,
          "attributes": {
            "POSITION": 30,
            "NORMAL": 31,
            "TEXCOORD_0": 32
          },
          "indices": 33,
          "material": 0
        }
      ]
    },
    {
      "primitives": [
        {
          "mode": 4,
          "attributes": {
            "POSITION": 34,
            "NORMAL": 35,
            "TEXCOORD_0": 36
          },
          "indices": 37,
          "material": 2
        }
      ]
    },
    {
      "primitives": [
        {
          "mode": 4,
          "attributes": {
            "POSITION": 38,
            "NORMAL": 39,
            "TEXCOORD_0": 40
          },
          "indices": 41,
          "material": 1
        }
      ]
    },
    {
      "primitives": [
        {
          "mode": 4,
          "attributes": {
            "POSITION": 38,
            "NORMAL": 39,
            "TEXCOORD_0": 40
          },
          "indices": 41,
          "material": 0
        }
      ]
    },
    {
      "primitives": [
        {
          "mode": 4,
          "attributes": {
            "POSITION": 42,
            "NORMAL": 43,
            "TEXCOORD_0": 44
          },
          "indices": 45,
          "material": 2
        }
      ]
    },
    {
      "primitives": [
        {
          "mode": 4,
          "attributes": {
            "POSITION": 42,
            "NORMAL": 43,
            "TEXCOORD_0": 44
          },
          "indices": 45,
          "material": 1
        }
      ]
    }
  ],
  "extensionsUsed": [
    "KHR_materials_emissive_strength"
  ]
}
